HIERARCHY
ROOT Root
{
  OFFSET 0.0 0.0 0.0
  CHANNELS 6 Xposition Yposition Zposition Zrotation Yrotation Xrotation
  JOINT Hips
  {
    OFFSET 0.0 100.0 0.0
    CHANNELS 6 Xposition Yposition Zposition Zrotation Yrotation Xrotation
    JOINT Spine1
    {
      OFFSET 5.003913 -0.037094 -0.013727
      CHANNELS 3 Zrotation Yrotation Xrotation
      JOINT Spine2
      {
        OFFSET 7.125363 -1e-06 0.0
        CHANNELS 3 Zrotation Yrotation Xrotation
        JOINT Chest
        {
          OFFSET 7.594027 1e-06 0.0
          CHANNELS 3 Zrotation Yrotation Xrotation
          JOINT Neck1
          {
            OFFSET 26.313086 -0.460272 -0.181672
            CHANNELS 3 Zrotation Yrotation Xrotation
            JOINT Neck2
            {
              OFFSET 8.045911 0.0 0.0
              CHANNELS 3 Zrotation Yrotation Xrotation
              JOINT Head
              {
                OFFSET 6.432774 0.0 0.0
                CHANNELS 3 Zrotation Yrotation Xrotation
                JOINT HeadEnd
                {
                  OFFSET 16.169773 0.06451 0.00362
                  CHANNELS 3 Zrotation Yrotation Xrotation
                }
                JOINT Jaw
                {
                  OFFSET 0.108741 3.12938 0.002639
                  CHANNELS 3 Zrotation Yrotation Xrotation
                }
                JOINT LeftEye
                {
                  OFFSET 4.45173 8.166359 3.206392
                  CHANNELS 3 Zrotation Yrotation Xrotation
                }
                JOINT RightEye
                {
                  OFFSET 4.436895 8.135758 -3.222429
                  CHANNELS 3 Zrotation Yrotation Xrotation
                }
              }
            }
          }
          JOINT LeftShoulder
          {
            OFFSET 23.218927 5.195579 1.621656
            CHANNELS 3 Zrotation Yrotation Xrotation
            JOINT LeftArm
            {
              OFFSET 15.902118 2e-06 -2e-06
              CHANNELS 3 Zrotation Yrotation Xrotation
              JOINT LeftForeArm
              {
                OFFSET 28.739307 0.0 -1e-06
                CHANNELS 3 Zrotation Yrotation Xrotation
                JOINT LeftHand
                {
                  OFFSET 27.093981 -4e-06 0.0
                  CHANNELS 3 Zrotation Yrotation Xrotation
                  JOINT LeftHandThumb1
                  {
                    OFFSET 2.276781 3.380274 0.83384
                    CHANNELS 3 Zrotation Yrotation Xrotation
                    JOINT LeftHandThumb2
                    {
                      OFFSET 4.705309 -1e-06 -1e-06
                      CHANNELS 3 Zrotation Yrotation Xrotation
                      JOINT LeftHandThumb3
                      {
                        OFFSET 2.798515 0.0 3e-06
                        CHANNELS 3 Zrotation Yrotation Xrotation
                        JOINT LeftHandThumbEnd
                        {
                          OFFSET 3.180793 4e-06 -4e-06
                          CHANNELS 3 Zrotation Yrotation Xrotation
                        }
                      }
                    }
                  }
                  JOINT LeftHandIndex1
                  {
                    OFFSET 3.247786 2.352677 0.137192
                    CHANNELS 3 Zrotation Yrotation Xrotation
                    JOINT LeftHandIndex2
                    {
                      OFFSET 6.367095 1e-06 0.0
                      CHANNELS 3 Zrotation Yrotation Xrotation
                      JOINT LeftHandIndex3
                      {
                        OFFSET 3.662364 0.0 0.0
                        CHANNELS 3 Zrotation Yrotation Xrotation
                        JOINT LeftHandIndex4
                        {
                          OFFSET 2.329242 4e-06 -4e-06
                          CHANNELS 3 Zrotation Yrotation Xrotation
                          JOINT LeftHandIndexEnd
                          {
                            OFFSET 2.767823 1e-06 0.0
                            CHANNELS 3 Zrotation Yrotation Xrotation
                          }
                        }
                      }
                    }
                  }
                  JOINT LeftHandMiddle1
                  {
                    OFFSET 3.163612 0.945023 -0.406112
                    CHANNELS 3 Zrotation Yrotation Xrotation
                    JOINT LeftHandMiddle2
                    {
                      OFFSET 6.276789 3e-06 0.0
                      CHANNELS 3 Zrotation Yrotation Xrotation
                      JOINT LeftHandMiddle3
                      {
                        OFFSET 4.35652 -1e-06 4e-06
                        CHANNELS 3 Zrotation Yrotation Xrotation
                        JOINT LeftHandMiddle4
                        {
                          OFFSET 2.996877 0.0 8e-06
                          CHANNELS 3 Zrotation Yrotation Xrotation
                          JOINT LeftHandMiddleEnd
                          {
                            OFFSET 2.323256 3e-06 -4e-06
                            CHANNELS 3 Zrotation Yrotation Xrotation
                          }
                        }
                      }
                    }
                  }
                  JOINT LeftHandRing1
                  {
                    OFFSET 2.882606 -0.309162 0.107445
                    CHANNELS 3 Zrotation Yrotation Xrotation
                    JOINT LeftHandRing2
                    {
                      OFFSET 6.033198 0.0 4e-06
                      CHANNELS 3 Zrotation Yrotation Xrotation
                      JOINT LeftHandRing3
                      {
                        OFFSET 4.350578 3e-06 0.0
                        CHANNELS 3 Zrotation Yrotation Xrotation
                        JOINT LeftHandRing4
                        {
                          OFFSET 2.651321 2e-06 -7e-06
                          CHANNELS 3 Zrotation Yrotation Xrotation
                          JOINT LeftHandRingEnd
                          {
                            OFFSET 1.937663 1e-06 -4e-06
                            CHANNELS 3 Zrotation Yrotation Xrotation
                          }
                        }
                      }
                    }
                  }
                  JOINT LeftHandPinky1
                  {
                    OFFSET 2.865315 -1.525436 0.575687
                    CHANNELS 3 Zrotation Yrotation Xrotation
                    JOINT LeftHandPinky2
                    {
                      OFFSET 5.54936 1e-06 -8e-06
                      CHANNELS 3 Zrotation Yrotation Xrotation
                      JOINT LeftHandPinky3
                      {
                        OFFSET 3.070974 0.0 -4e-06
                        CHANNELS 3 Zrotation Yrotation Xrotation
                        JOINT LeftHandPinky4
                        {
                          OFFSET 1.549672 1e-06 0.0
                          CHANNELS 3 Zrotation Yrotation Xrotation
                          JOINT LeftHandPinkyEnd
                          {
                            OFFSET 1.952123 0.0 0.0
                            CHANNELS 3 Zrotation Yrotation Xrotation
                          }
                        }
                      }
                    }
                  }
                }
              }
            }
          }
          JOINT RightShoulder
          {
            OFFSET 23.161716 5.296122 -1.380114
            CHANNELS 3 Zrotation Yrotation Xrotation
            JOINT RightArm
            {
              OFFSET -16.027195 -2e-06 1.1e-05
              CHANNELS 3 Zrotation Yrotation Xrotation
              JOINT RightForeArm
              {
                OFFSET -28.736639 4e-06 2e-06
                CHANNELS 3 Zrotation Yrotation Xrotation
                JOINT RightHand
                {
                  OFFSET -27.133619 6e-06 0.0
                  CHANNELS 3 Zrotation Yrotation Xrotation
                  JOINT RightHandThumb1
                  {
                    OFFSET -2.274328 -3.351035 -0.83067
                    CHANNELS 3 Zrotation Yrotation Xrotation
                    JOINT RightHandThumb2
                    {
                      OFFSET -4.703594 -3e-06 2e-06
                      CHANNELS 3 Zrotation Yrotation Xrotation
                      JOINT RightHandThumb3
                      {
                        OFFSET -2.794935 -4e-06 -3e-06
                        CHANNELS 3 Zrotation Yrotation Xrotation
                        JOINT RightHandThumbEnd
                        {
                          OFFSET -3.183852 4e-06 1e-06
                          CHANNELS 3 Zrotation Yrotation Xrotation
                        }
                      }
                    }
                  }
                  JOINT RightHandIndex1
                  {
                    OFFSET -3.253496 -2.33755 -0.127667
                    CHANNELS 3 Zrotation Yrotation Xrotation
                    JOINT RightHandIndex2
                    {
                      OFFSET -6.344434 0.0 0.0
                      CHANNELS 3 Zrotation Yrotation Xrotation
                      JOINT RightHandIndex3
                      {
                        OFFSET -3.654871 0.0 -8e-06
                        CHANNELS 3 Zrotation Yrotation Xrotation
                        JOINT RightHandIndex4
                        {
                          OFFSET -2.327586 -1e-06 0.0
                          CHANNELS 3 Zrotation Yrotation Xrotation
                          JOINT RightHandIndexEnd
                          {
                            OFFSET -2.770001 3e-06 8e-06
                            CHANNELS 3 Zrotation Yrotation Xrotation
                          }
                        }
                      }
                    }
                  }
                  JOINT RightHandMiddle1
                  {
                    OFFSET -3.168223 -0.944764 0.411762
                    CHANNELS 3 Zrotation Yrotation Xrotation
                    JOINT RightHandMiddle2
                    {
                      OFFSET -6.266691 -1e-06 -4e-06
                      CHANNELS 3 Zrotation Yrotation Xrotation
                      JOINT RightHandMiddle3
                      {
                        OFFSET -4.348901 0.0 0.0
                        CHANNELS 3 Zrotation Yrotation Xrotation
                        JOINT RightHandMiddle4
                        {
                          OFFSET -3.00024 2e-06 -4e-06
                          CHANNELS 3 Zrotation Yrotation Xrotation
                          JOINT RightHandMiddleEnd
                          {
                            OFFSET -2.321477 -4e-06 -4e-06
                            CHANNELS 3 Zrotation Yrotation Xrotation
                          }
                        }
                      }
                    }
                  }
                  JOINT RightHandRing1
                  {
                    OFFSET -2.885654 0.293261 -0.119232
                    CHANNELS 3 Zrotation Yrotation Xrotation
                    JOINT RightHandRing2
                    {
                      OFFSET -6.032835 -1e-06 -4e-06
                      CHANNELS 3 Zrotation Yrotation Xrotation
                      JOINT RightHandRing3
                      {
                        OFFSET -4.33881 0.0 -4e-06
                        CHANNELS 3 Zrotation Yrotation Xrotation
                        JOINT RightHandRing4
                        {
                          OFFSET -2.654903 -4e-06 -4e-06
                          CHANNELS 3 Zrotation Yrotation Xrotation
                          JOINT RightHandRingEnd
                          {
                            OFFSET -1.935122 0.0 4e-06
                            CHANNELS 3 Zrotation Yrotation Xrotation
                          }
                        }
                      }
                    }
                  }
                  JOINT RightHandPinky1
                  {
                    OFFSET -2.866241 1.503904 -0.60527
                    CHANNELS 3 Zrotation Yrotation Xrotation
                    JOINT RightHandPinky2
                    {
                      OFFSET -5.553177 -2e-06 0.0
                      CHANNELS 3 Zrotation Yrotation Xrotation
                      JOINT RightHandPinky3
                      {
                        OFFSET -3.062664 -1e-06 -4e-06
                        CHANNELS 3 Zrotation Yrotation Xrotation
                        JOINT RightHandPinky4
                        {
                          OFFSET -1.546529 2e-06 4e-06
                          CHANNELS 3 Zrotation Yrotation Xrotation
                          JOINT RightHandPinkyEnd
                          {
                            OFFSET -1.952341 0.0 -4e-06
                            CHANNELS 3 Zrotation Yrotation Xrotation
                          }
                        }
                      }
                    }
                  }
                }
              }
            }
          }
        }
      }
    }
    JOINT LeftLeg
    {
      OFFSET -8.443107 2.567604 10.043214
      CHANNELS 3 Zrotation Yrotation Xrotation
      JOINT LeftShin
      {
        OFFSET 43.229198 1e-06 -1e-06
        CHANNELS 3 Zrotation Yrotation Xrotation
        JOINT LeftFoot
        {
          OFFSET 42.298611 1e-06 1e-06
          CHANNELS 3 Zrotation Yrotation Xrotation
          JOINT LeftToeBase
          {
            OFFSET 14.165858 1e-06 0.0
            CHANNELS 3 Zrotation Yrotation Xrotation
            JOINT LeftToeEnd
            {
              OFFSET 6.7141 -0.234461 0.0
              CHANNELS 3 Zrotation Yrotation Xrotation
            }
          }
        }
      }
    }
    JOINT RightLeg
    {
      OFFSET -8.303923 2.592729 -10.047278
      CHANNELS 3 Zrotation Yrotation Xrotation
      JOINT RightShin
      {
        OFFSET -43.369682 0.0 1e-06
        CHANNELS 3 Zrotation Yrotation Xrotation
        JOINT RightFoot
        {
          OFFSET -42.260784 4e-06 2e-06
          CHANNELS 3 Zrotation Yrotation Xrotation
          JOINT RightToeBase
          {
            OFFSET -14.222245 -2e-06 -1e-06
            CHANNELS 3 Zrotation Yrotation Xrotation
            JOINT RightToeEnd
            {
              OFFSET -6.660062 0.232574 -2e-06
              CHANNELS 3 Zrotation Yrotation Xrotation
            }
          }
        }
      }
    }
  }
}
MOTION
Frames: 4
Frame Time: 0.03333333333333333
0.0 0.0 0.0 0.0 -0.0 0.0 0.04599 100.147392 -0.018426 90.175262 0.809708 89.920052 -1.205442 0.603217 0.355301 -11.301749 -0.266929 0.839042 15.535829 0.031395 -0.967202 16.952705 2.037531 2.197718 -2.554025 -0.341849 4.609262 -39.326801 1.709545 2.907008 5e-06 -0.0 -0.0 0.070823 -0.023338 -0.013303 0.248119 -0.116966 -0.009325 0.232311 0.072744 -0.011033 -89.014465 -76.711266 98.82148 50.915501 -48.595032 -73.116325 71.108681 1.593582 -0.234335 2.587634 12.110927 -81.395073 17.636633 -26.322733 52.41119 -19.466656 -14.395597 29.410389 1e-06 -8.774821 -2e-06 16.501982 -17.45233 5.311277 -0.609779 -1.795655 -3.889328 -4.807088 -11.04681 -2.93785 3e-06 -20.976015 -0.0 -5.019971 -25.033554 -4.031884 6e-06 -0.0 -1e-06 -10.634533 -5.686972 -3.565587 10.573274 -17.922947 -3.113898 1e-06 -13.821206 1e-06 -0.501782 -31.181498 -4.027013 -11.480925 -59.05978 7.211965 -13.982718 -7.150198 -2.875042 13.772729 -8.401491 -3.21824 0.347732 -34.211555 0.771656 -0.963031 -17.733372 2.621021 0.0 -0.0 1e-06 -17.346422 -20.095219 -4.20178 21.757563 -1.638372 3.866428 2e-06 -6.338823 1e-06 -1.697589 -22.591743 -6.194006 2e-06 -5e-06 -1e-06 59.455658 -81.322647 134.175842 46.147598 -45.152428 -84.225983 74.703484 -0.920273 -0.238616 -4.222883 11.269883 -88.703995 22.182119 -20.375895 49.933319 -16.701807 -16.74353 28.476528 -2e-06 -12.690601 -2e-06 13.587658 -16.766493 4.503429 -0.105916 -1.513854 -4.275881 -5.039042 -5.612872 -2.953557 3e-06 -11.02052 -1e-06 -6.111301 -15.895328 -3.840469 0.0 -1e-06 -1e-06 -10.283371 -5.680288 -4.341838 11.02829 -11.302402 -2.372633 -1.384269 -14.238577 -6.320121 -0.625438 -26.924183 -3.827601 -5.057347 -49.246922 -2.276089 -13.708526 -7.363476 -3.720937 18.141148 -14.052734 -3.242673 5e-06 -18.787262 -1e-06 -0.429712 -8.456045 2.555502 -0.0 -1e-06 -0.0 -15.923538 -20.094481 -5.473583 30.41921 -7.190823 1.735927 2e-06 -8.162924 2e-06 -1.861905 -22.861467 -6.167939 0.0 -3e-06 -0.0 -179.717056 -2.184074 -2.870046 11.376199 -0.050058 -0.025854 -79.354546 -7.292377 -5.553138 -3.628659 1.591472 2.223626 -0.999999 0.0 0.0 -0.355708 -5.064727 -1.079789 10.04539 -0.077684 0.201746 -78.135132 0.961875 -5.155465 -4.458959 0.600365 1.679689 -1.000001 0.0 0.0 
0.0 0.0 0.0 0.0 -0.0 0.0 0.063486 100.139 -0.013529 90.178261 0.812417 89.918495 -1.199889 0.603352 0.357643 -11.305153 -0.248277 0.856676 15.52209 0.032367 -0.973292 16.974766 2.037127 2.168898 -2.545518 -0.345797 4.626247 -39.276165 1.688036 2.907142 5e-06 -1e-06 -0.0 0.067716 -0.018213 8.6e-05 0.253063 -0.112204 0.003458 0.235851 0.078365 0.003072 -89.074585 -76.718246 98.837738 50.772774 -48.591881 -72.886086 71.135536 1.52503 -0.186003 2.507876 12.082429 -81.464943 17.636635 -26.322733 52.411186 -19.46666 -14.395596 29.410389 -0.0 -8.77482 -2e-06 16.461905 -17.445309 5.355625 -0.609776 -1.795653 -3.889328 -4.807091 -11.046813 -2.937849 2e-06 -20.976019 1e-06 -5.019976 -25.033556 -4.031881 7e-06 -0.0 -2e-06 -10.634535 -5.686971 -3.565587 10.573271 -17.922951 -3.113897 2e-06 -13.821209 1e-06 -0.501781 -31.181498 -4.027014 -11.533756 -59.139713 7.241142 -13.982719 -7.150201 -2.875041 13.772734 -8.401493 -3.218239 0.347731 -34.211552 0.771655 -0.963029 -17.73337 2.621017 0.0 -1e-06 -1e-06 -17.346416 -20.095217 -4.201782 21.757555 -1.638376 3.866431 2e-06 -6.338822 0.0 -1.69759 -22.591745 -6.194006 1e-06 -5e-06 -2e-06 59.829159 -81.342651 133.829437 46.220623 -45.167423 -84.260941 74.780128 -0.926069 -0.18547 -4.301519 11.357965 -88.723885 22.182114 -20.375898 49.933327 -16.701807 -16.74353 28.47653 -3e-06 -12.690602 -2e-06 13.572058 -16.759672 4.522126 -0.10592 -1.513856 -4.275881 -5.039043 -5.612872 -2.953557 3e-06 -11.020524 -2e-06 -6.1113 -15.89533 -3.840471 1e-06 -0.0 0.0 -10.283373 -5.680289 -4.341838 11.028294 -11.302402 -2.372633 -1.384267 -14.238581 -6.320121 -0.62544 -26.924189 -3.8276 -5.063025 -49.291634 -2.274978 -13.708527 -7.363477 -3.720938 18.141148 -14.052739 -3.242674 5e-06 -18.78727 -1e-06 -0.429712 -8.456042 2.555504 -1e-06 0.0 -0.0 -15.923536 -20.094482 -5.473584 30.41921 -7.190826 1.735925 3e-06 -8.162925 1e-06 -1.861904 -22.861469 -6.167939 -0.0 -3e-06 -1e-06 -179.737366 -2.180685 -2.866905 11.469312 -0.05124 -0.031002 -79.417374 -7.270476 -5.571302 -3.622253 1.595651 2.223028 -0.999999 1e-06 0.0 -0.401576 -5.076795 -1.064662 10.169057 -0.076845 0.206981 -78.202774 0.940102 -5.170374 -4.469879 0.602326 1.675885 -1.000001 -0.0 -0.0 
0.0 0.0 0.0 0.0 -0.0 0.0 0.080696 100.131454 -0.003183 90.187782 0.807061 89.928902 -1.190437 0.603937 0.345153 -11.319598 -0.235282 0.866553 15.509872 0.029827 -0.968799 16.982969 2.040764 2.146588 -2.543744 -0.350794 4.625258 -39.279392 1.658477 2.918591 5e-06 -0.0 -0.0 0.064064 -0.012392 0.014097 0.253455 -0.107966 0.01723 0.235468 0.08583 0.016996 -89.015259 -76.73011 98.745392 50.631012 -48.597713 -72.588577 71.178635 1.545319 -0.122381 2.424781 12.052347 -81.499229 17.636616 -26.322729 52.411198 -19.466665 -14.395598 29.410393 -1e-06 -8.77482 -2e-06 16.403147 -17.475327 5.42295 -0.609774 -1.795653 -3.889327 -4.807087 -11.046811 -2.937851 5e-06 -20.976017 -2e-06 -5.019969 -25.033554 -4.031883 6e-06 0.0 -0.0 -10.634535 -5.68697 -3.565586 10.573277 -17.922947 -3.113903 2e-06 -13.821205 -1e-06 -0.501776 -31.181498 -4.027017 -11.578385 -59.154396 7.287796 -13.982712 -7.150198 -2.875039 13.772731 -8.401493 -3.218242 0.347737 -34.211544 0.77165 -0.963028 -17.73337 2.621017 0.0 -1e-06 -0.0 -17.346413 -20.095215 -4.20178 21.757555 -1.638375 3.866423 5e-06 -6.338823 1e-06 -1.697588 -22.59174 -6.194004 0.0 -5e-06 -2e-06 60.173347 -81.364319 133.524597 46.288441 -45.170151 -84.267807 74.801155 -0.875637 -0.119269 -4.327112 11.438212 -88.692215 22.182108 -20.375883 49.933292 -16.701805 -16.743525 28.476515 -3e-06 -12.6906 -2e-06 13.540346 -16.774456 4.517758 -0.105918 -1.513854 -4.275879 -5.039038 -5.612869 -2.953555 5e-06 -11.02052 -2e-06 -6.111294 -15.895324 -3.840468 -1e-06 -0.0 -2e-06 -10.283362 -5.680284 -4.341837 11.028287 -11.302404 -2.372632 -1.384267 -14.238575 -6.320116 -0.625438 -26.924181 -3.827598 -5.04788 -49.260498 -2.304771 -13.708521 -7.363473 -3.720938 18.141144 -14.052735 -3.242674 7e-06 -18.787262 -2e-06 -0.429712 -8.456044 2.555505 -0.0 -1e-06 0.0 -15.923526 -20.094477 -5.473583 30.419193 -7.190826 1.735924 3e-06 -8.162919 -0.0 -1.861899 -22.86146 -6.167941 0.0 -2e-06 -1e-06 -179.76181 -2.169805 -2.850419 11.544992 -0.052962 -0.042755 -79.466019 -7.26755 -5.573051 -3.609973 1.590714 2.220437 -0.999999 -0.0 -0.0 -0.45331 -5.098557 -1.074429 10.295893 -0.076907 0.204688 -78.273186 0.934045 -5.17658 -4.469327 0.602036 1.671306 -1.000002 0.0 0.0 
0.0 0.0 0.0 0.0 -0.0 0.0 0.096362 100.128876 0.013216 90.20401 0.806877 89.928871 -1.178403 0.602044 0.324022 -11.327653 -0.235557 0.859899 15.490682 0.021007 -0.945943 16.986073 2.052977 2.12993 -2.551024 -0.345282 4.617907 -39.29763 1.647798 2.958368 6e-06 -0.0 -1e-06 0.060648 -0.010912 0.018764 0.245279 -0.107397 0.020714 0.22955 0.08814 0.022332 -88.891556 -76.731644 98.637344 50.491722 -48.587326 -72.243958 71.251991 1.648811 -0.070393 2.375191 12.030796 -81.494247 17.636623 -26.322723 52.411186 -19.466665 -14.395597 29.410393 -2e-06 -8.774821 -3e-06 16.363327 -17.514826 5.462567 -0.609777 -1.795655 -3.889326 -4.807085 -11.046811 -2.937851 5e-06 -20.976017 -2e-06 -5.019967 -25.03356 -4.031887 6e-06 1e-06 1e-06 -10.634533 -5.686971 -3.565586 10.573275 -17.922951 -3.113901 2e-06 -13.821209 -0.0 -0.501777 -31.181501 -4.027019 -11.589171 -59.102066 7.318599 -13.982712 -7.150196 -2.875041 13.77273 -8.401494 -3.218244 0.347738 -34.211552 0.77165 -0.963026 -17.733372 2.621018 0.0 -1e-06 -1e-06 -17.346416 -20.095217 -4.201782 21.757557 -1.638375 3.866425 3e-06 -6.338824 -0.0 -1.697587 -22.591743 -6.194006 -1e-06 -4e-06 -2e-06 60.321281 -81.405846 133.410278 46.325771 -45.191044 -84.291214 74.787514 -0.824037 -0.070975 -4.349866 11.475344 -88.652138 22.182106 -20.375898 49.933319 -16.701813 -16.74353 28.476534 -2e-06 -12.690602 -1e-06 13.495452 -16.796919 4.49655 -0.105918 -1.513857 -4.275881 -5.039041 -5.61287 -2.953557 3e-06 -11.020525 -3e-06 -6.111294 -15.895332 -3.84047 1e-06 0.0 -1e-06 -10.283367 -5.680287 -4.341839 11.028296 -11.302407 -2.372633 -1.384266 -14.238577 -6.320122 -0.625435 -26.924191 -3.827604 -5.019931 -49.17466 -2.348078 -13.708521 -7.363476 -3.72094 18.141146 -14.052739 -3.242676 7e-06 -18.787266 -2e-06 -0.429713 -8.456044 2.555506 -2e-06 0.0 1e-06 -15.923532 -20.094484 -5.473583 30.41921 -7.190825 1.735924 2e-06 -8.162922 -0.0 -1.861902 -22.861467 -6.167941 1e-06 -3e-06 -2e-06 -179.737274 -2.150496 -2.83764 11.534695 -0.054305 -0.052193 -79.469597 -7.286684 -5.592927 -3.609817 1.583238 2.220179 -0.999999 0.0 0.0 -0.464155 -5.122429 -1.0823 10.348727 -0.079042 0.195775 -78.311813 0.941104 -5.167475 -4.456098 0.591133 1.665309 -1.000001 0.0 -0.0 
